<svg width="383" height="820" viewBox="0 0 383 820" fill="none" xmlns="http://www.w3.org/2000/svg">
<g filter="url(#filter0_d_2_167)">
<rect width="375" height="812" transform="translate(4)" fill="#FDFDFD"/>
<mask id="mask0_2_167" style="mask-type:alpha" maskUnits="userSpaceOnUse" x="4" y="0" width="375" height="812">
<rect x="4" width="375" height="812" fill="white"/>
</mask>
<g mask="url(#mask0_2_167)">
<g opacity="0.6" filter="url(#filter1_f_2_167)">
<rect x="-203" y="815" width="432" height="432" rx="216" fill="#4B2771"/>
</g>
<g opacity="0.6" filter="url(#filter2_f_2_167)">
<rect x="255" y="-172" width="230" height="230" rx="115" fill="#EA630B"/>
</g>
<g opacity="0.6" filter="url(#filter3_f_2_167)">
<rect x="325" y="690" width="130" height="140" rx="65" fill="#9BB020"/>
</g>
<path d="M189.914 392.549L182.519 379.74L178.876 381.843L186.271 394.652L189.914 392.549Z" fill="#4A2A5E"/>
<path d="M132.484 378.254C132.871 378.643 133.33 378.952 133.836 379.165C134.358 379.383 134.918 379.495 135.484 379.495C136.049 379.495 136.609 379.383 137.132 379.165C138.148 378.732 138.957 377.922 139.391 376.906C139.608 376.384 139.72 375.824 139.72 375.258C139.72 374.693 139.608 374.133 139.391 373.611C139.177 373.106 138.867 372.647 138.48 372.259C138.092 371.872 137.635 371.563 137.132 371.348C136.609 371.13 136.049 371.018 135.484 371.018C134.918 371.018 134.358 371.13 133.836 371.348C132.816 371.78 132.005 372.591 131.573 373.611C131.356 374.133 131.244 374.693 131.244 375.258C131.244 375.824 131.356 376.384 131.573 376.906C131.786 377.411 132.096 377.869 132.484 378.254V378.254Z" fill="#EA630B"/>
<path d="M141.938 378.114C142.308 378.482 142.744 378.776 143.223 378.98C143.72 379.19 144.254 379.299 144.793 379.299C145.333 379.299 145.867 379.19 146.363 378.98C146.843 378.776 147.28 378.482 147.648 378.114C148.016 377.743 148.312 377.308 148.519 376.829C148.729 376.332 148.837 375.798 148.837 375.258C148.837 374.719 148.729 374.185 148.519 373.688C148.313 373.209 148.017 372.773 147.648 372.403C147.28 372.035 146.843 371.741 146.363 371.537C145.867 371.327 145.333 371.218 144.793 371.218C144.254 371.218 143.72 371.327 143.223 371.537C142.744 371.741 142.308 372.035 141.938 372.403C141.57 372.772 141.276 373.208 141.072 373.688C140.862 374.185 140.753 374.719 140.753 375.258C140.753 375.798 140.862 376.332 141.072 376.829C141.276 377.308 141.57 377.744 141.938 378.114V378.114Z" fill="#EA630B"/>
<path d="M250.806 378.069C251.147 378.408 251.549 378.68 251.991 378.869C252.45 379.064 252.943 379.165 253.441 379.165C253.939 379.165 254.433 379.064 254.891 378.869C255.334 378.681 255.736 378.409 256.076 378.069C256.416 377.728 256.689 377.326 256.88 376.884C257.075 376.426 257.175 375.933 257.175 375.434C257.175 374.936 257.075 374.443 256.88 373.985C256.495 373.092 255.784 372.38 254.891 371.996C254.433 371.801 253.939 371.7 253.441 371.7C252.943 371.7 252.45 371.801 251.991 371.996C251.549 372.187 251.147 372.459 250.806 372.8C250.466 373.14 250.195 373.542 250.007 373.985C249.812 374.443 249.711 374.936 249.711 375.434C249.711 375.933 249.812 376.426 250.007 376.884C250.196 377.326 250.467 377.728 250.806 378.069V378.069Z" fill="#EA630B"/>
<path d="M256.309 385.657C255.984 384.773 255.52 383.947 254.935 383.209C254.41 382.561 253.765 382.02 253.036 381.617C252.366 381.241 251.633 380.99 250.873 380.876C250.156 380.772 249.425 380.809 248.722 380.987C248.03 381.155 247.387 381.482 246.844 381.943C246.266 382.439 245.811 383.063 245.515 383.764C245.16 384.609 244.987 385.519 245.007 386.434C245.011 386.965 245.138 387.487 245.378 387.96C245.618 388.445 245.902 388.907 246.226 389.341C246.557 389.788 246.896 390.228 247.244 390.66C247.582 391.071 247.87 391.521 248.103 392C248.322 392.457 248.447 392.953 248.473 393.459C248.489 394.036 248.345 394.606 248.059 395.107C247.818 395.496 247.509 395.838 247.148 396.118C246.787 396.396 246.391 396.625 245.97 396.799C245.539 396.971 245.091 397.095 244.633 397.17C244.396 397.211 244.159 397.236 243.922 397.255C241.143 397.092 239.307 395.639 238.416 392.896C237.525 390.102 238.018 386.028 239.897 380.676C241.776 375.324 242.091 371.25 240.841 368.456C239.99 366.523 238.649 365.615 236.82 365.734C235.02 365.749 233.483 367.015 232.209 369.533C230.935 372.051 230.318 376.963 230.358 384.268C230.805 391.262 232.475 396.158 235.368 398.955C238.007 401.488 240.635 402.776 243.252 402.821V402.843C243.456 402.873 243.662 402.88 243.867 402.865C244.07 402.865 244.278 402.843 244.482 402.843C245.967 402.905 247.454 402.73 248.885 402.325C250.098 401.977 251.244 401.429 252.277 400.703C253.223 400.026 254.052 399.198 254.728 398.251C255.388 397.325 255.92 396.313 256.309 395.244C256.694 394.181 256.943 393.074 257.05 391.948C257.161 390.857 257.154 389.757 257.028 388.667C256.915 387.638 256.673 386.626 256.309 385.657V385.657Z" fill="#EA630B"/>
<path d="M241.726 376.773C241.915 377.216 242.186 377.618 242.526 377.958C242.868 378.297 243.27 378.57 243.711 378.762C244.17 378.957 244.663 379.057 245.161 379.057C245.659 379.057 246.152 378.957 246.611 378.762C247.054 378.571 247.457 378.298 247.8 377.958C248.14 377.618 248.411 377.216 248.599 376.773C248.794 376.315 248.895 375.821 248.895 375.323C248.895 374.825 248.794 374.332 248.599 373.873C248.41 373.431 248.139 373.029 247.8 372.688C247.457 372.348 247.054 372.076 246.611 371.885C246.152 371.69 245.659 371.589 245.161 371.589C244.663 371.589 244.17 371.69 243.711 371.885C243.27 372.077 242.868 372.349 242.526 372.688C242.187 373.029 241.916 373.431 241.726 373.873C241.531 374.332 241.431 374.825 241.431 375.323C241.431 375.821 241.531 376.315 241.726 376.773V376.773Z" fill="#EA630B"/>
<path d="M260.583 408.905C261.821 409.385 262.939 410.129 263.86 411.086C264.813 412.076 265.606 413.208 266.211 414.441C266.858 415.757 267.339 417.148 267.645 418.581C267.97 420.077 268.148 421.602 268.178 423.132C268.208 424.679 268.095 426.225 267.841 427.75C267.602 429.221 267.206 430.663 266.66 432.05C266.156 433.336 265.48 434.549 264.649 435.653C263.884 436.679 262.926 437.544 261.827 438.2C260.732 438.838 259.506 439.218 258.242 439.311C256.762 439.4 255.279 439.17 253.895 438.637C253.091 438.364 252.362 437.905 251.769 437.297C251.225 436.741 250.793 436.086 250.495 435.368C250.219 434.7 250.086 433.982 250.103 433.26C250.109 432.593 250.293 431.94 250.636 431.368C250.899 430.939 251.239 430.562 251.64 430.257C252.052 429.933 252.532 429.706 253.043 429.591C253.627 429.468 254.23 429.468 254.813 429.591C255.567 429.749 256.288 430.03 256.95 430.424C257.534 430.804 258.203 431.033 258.898 431.09C259.492 431.126 260.085 430.998 260.612 430.72C261.186 430.398 261.689 429.965 262.094 429.446C262.592 428.817 263.019 428.136 263.367 427.413C260.504 427.275 258.062 426.636 256.043 425.495C254.068 424.401 252.483 422.718 251.51 420.681C251.073 419.658 250.814 418.569 250.744 417.459C250.664 416.372 250.752 415.279 251.003 414.219C251.244 413.208 251.649 412.243 252.203 411.364C252.726 410.523 253.426 409.807 254.254 409.264C255.102 408.725 256.07 408.404 257.072 408.331C258.271 408.246 259.473 408.443 260.583 408.905ZM258.016 417.792C257.926 418.248 257.949 418.718 258.083 419.163C258.213 419.585 258.423 419.979 258.702 420.322C258.992 420.682 259.335 420.995 259.72 421.251C260.117 421.517 260.542 421.739 260.986 421.914C261.418 422.082 261.866 422.207 262.323 422.284C262.737 422.362 263.158 422.391 263.579 422.37C263.583 421.64 263.493 420.913 263.308 420.207C263.147 419.575 262.904 418.966 262.586 418.396C262.298 417.883 261.922 417.424 261.475 417.041C261.093 416.704 260.632 416.47 260.135 416.359C259.71 416.26 259.264 416.326 258.887 416.545C258.45 416.839 258.139 417.287 258.016 417.8V417.792Z" fill="#9BB020"/>
<path d="M183.18 397.222H157.606C157.407 397.181 157.211 397.129 157.017 397.066C156.599 396.933 156.158 396.77 155.688 396.574C155.218 396.377 154.755 396.155 154.292 395.914C153.894 395.708 153.509 395.477 153.14 395.222C153.828 394.222 154.358 393.121 154.71 391.96C154.982 391.068 155.09 390.134 155.029 389.204C154.978 388.452 154.736 387.726 154.325 387.094C153.953 386.529 153.444 386.069 152.844 385.757C152.221 385.442 151.531 385.283 150.833 385.294C150.039 385.306 149.258 385.489 148.541 385.831C147.671 386.25 146.88 386.815 146.201 387.501C145.345 388.364 144.627 389.353 144.071 390.434C143.044 392.354 141.725 394.103 140.161 395.618C138.77 396.965 137.186 398.097 135.461 398.977C133.908 399.769 132.234 400.296 130.507 400.536C128.953 400.76 127.37 400.694 125.841 400.34C124.437 400.01 123.129 399.36 122.019 398.44C120.899 397.492 120.057 396.258 119.582 394.87C119.354 393.88 119.305 392.856 119.438 391.848C119.544 391.046 119.814 390.273 120.23 389.578C120.585 388.995 121.089 388.517 121.69 388.193C122.252 387.896 122.889 387.767 123.523 387.823C124.218 387.895 124.881 388.15 125.445 388.564C126.169 389.099 126.769 389.785 127.203 390.575C127.506 391.076 127.88 391.53 128.314 391.922C128.73 392.305 129.205 392.617 129.722 392.845C130.238 393.074 130.786 393.226 131.347 393.296C131.925 393.37 132.51 393.348 133.08 393.23C134.009 393.059 134.877 392.647 135.595 392.034C136.315 391.436 136.893 390.686 137.287 389.838C137.673 389.007 137.85 388.094 137.802 387.179C137.753 386.221 137.382 385.308 136.75 384.587C135.679 383.243 134.34 382.137 132.817 381.339C131.472 380.641 130.002 380.216 128.492 380.087C127.024 379.968 125.547 380.12 124.134 380.535C122.706 380.942 121.349 381.567 120.112 382.387C118.877 383.216 117.774 384.227 116.842 385.386C115.911 386.534 115.178 387.829 114.676 389.219C114.176 390.624 113.95 392.111 114.009 393.6C114.08 395.221 114.495 396.808 115.228 398.255C116.003 399.835 117.115 401.225 118.486 402.328C119.969 403.533 121.634 404.493 123.419 405.172C125.365 405.919 127.405 406.392 129.481 406.579C131.705 406.789 133.948 406.693 136.147 406.294C138.483 405.869 140.752 405.133 142.894 404.106C145.204 402.993 147.332 401.537 149.207 399.788C149.886 400.288 150.616 400.715 151.385 401.062C152.187 401.437 153.012 401.76 153.855 402.028C154.624 402.279 155.408 402.481 156.203 402.632C156.495 402.687 156.762 402.732 157.006 402.762V402.995H186.339L183.18 397.222Z" fill="#EA630B"/>
<path d="M228.317 392.467C228.252 390.856 228.028 389.256 227.647 387.69C227.262 386.074 226.721 384.499 226.033 382.987C225.198 381.124 224.164 379.357 222.948 377.717C221.959 376.388 220.796 375.199 219.489 374.181C218.387 373.326 217.146 372.668 215.819 372.237C214.624 371.856 213.37 371.689 212.116 371.744C211.253 371.785 210.401 371.958 209.591 372.259C208.911 372.513 208.283 372.889 207.739 373.37C207.256 373.796 206.863 374.315 206.584 374.895C206.318 375.447 206.177 376.05 206.169 376.662C206.165 377.298 206.291 377.928 206.539 378.513C206.81 379.161 207.205 379.75 207.702 380.246C206.964 380.486 206.288 380.887 205.725 381.42C205.092 382.012 204.564 382.707 204.166 383.476C203.245 385.279 202.912 387.325 203.214 389.327C203.4 390.498 203.759 391.635 204.28 392.7C204.894 393.941 205.697 395.078 206.662 396.07C206.159 396.367 205.625 396.606 205.069 396.785C204.546 396.952 204.01 397.076 203.466 397.155C202.927 397.228 202.384 397.268 201.84 397.273H201.281H197.089L200.248 402.758H201.281C202.04 402.676 202.762 402.58 203.421 402.462C204.23 402.321 205.025 402.108 205.795 401.825C206.563 401.54 207.299 401.175 207.991 400.736C208.762 400.245 209.486 399.684 210.154 399.058C211.948 400.494 213.91 401.707 215.997 402.669C217.462 403.357 219.047 403.757 220.663 403.847C221.9 403.908 223.128 403.609 224.2 402.987C225.197 402.379 226.03 401.534 226.625 400.529C227.288 399.402 227.749 398.169 227.988 396.885C228.271 395.43 228.381 393.947 228.317 392.467V392.467ZM211.361 390.841C211.079 391.688 210.664 392.484 210.131 393.2C209.789 392.869 209.491 392.496 209.243 392.089C208.977 391.658 208.756 391.202 208.583 390.726C208.42 390.275 208.309 389.807 208.254 389.33C208.199 388.915 208.229 388.493 208.343 388.09C208.446 387.735 208.662 387.423 208.957 387.201C209.323 386.955 209.758 386.836 210.198 386.86C210.397 386.87 210.59 386.925 210.764 387.022C210.937 387.119 211.086 387.255 211.198 387.419C211.488 387.837 211.649 388.33 211.661 388.838C211.681 389.518 211.58 390.197 211.361 390.841V390.841ZM221.5 395.563C221.471 396.184 221.285 396.788 220.959 397.318C220.806 397.555 220.603 397.756 220.365 397.908C220.126 398.059 219.858 398.157 219.578 398.196C218.784 398.285 217.979 398.175 217.238 397.877C216.032 397.42 214.892 396.807 213.846 396.055C214.534 395.285 215.13 394.437 215.623 393.53C216.088 392.677 216.477 391.784 216.786 390.863C217.069 390.021 217.268 389.153 217.382 388.271C217.481 387.503 217.502 386.726 217.445 385.953C218.096 386.61 218.674 387.335 219.171 388.116C219.684 388.919 220.129 389.763 220.5 390.641C220.853 391.477 221.125 392.345 221.311 393.233C221.48 393.998 221.543 394.781 221.5 395.563V395.563Z" fill="#EA630B"/>
<path d="M192.723 392.933L199.796 405.865C200.347 406.872 200.476 408.057 200.154 409.159C199.832 410.261 199.085 411.19 198.078 411.742C197.071 412.293 195.886 412.422 194.783 412.1C193.681 411.777 192.752 411.031 192.201 410.023L185.128 397.103L192.723 392.933Z" fill="#EA630B"/>
<path d="M190.938 393.911L191.99 393.333L199.063 406.268C199.505 407.082 199.608 408.038 199.348 408.927C199.087 409.816 198.486 410.566 197.674 411.012C197.534 411.085 197.37 411.101 197.219 411.057C197.101 411.027 196.994 410.962 196.915 410.87C196.835 410.778 196.785 410.664 196.771 410.544C196.758 410.423 196.782 410.301 196.84 410.194C196.898 410.087 196.988 410 197.096 409.946C197.361 409.801 197.594 409.607 197.783 409.372C197.972 409.138 198.113 408.869 198.198 408.58C198.283 408.291 198.31 407.988 198.278 407.689C198.246 407.389 198.155 407.099 198.011 406.835L190.938 393.911Z" fill="#EF8500"/>
<path d="M185.128 397.103L192.723 392.945L192.416 392.378C192.222 392.026 191.896 391.765 191.511 391.652C191.125 391.539 190.71 391.583 190.357 391.774L185.417 394.478C185.242 394.573 185.089 394.702 184.964 394.856C184.84 395.011 184.747 395.189 184.692 395.379C184.636 395.57 184.618 395.769 184.64 395.967C184.661 396.164 184.721 396.355 184.817 396.529L185.128 397.103Z" fill="#4B2771"/>
<path d="M174.27 347.674C170.73 347.669 167.267 348.714 164.32 350.676C161.374 352.639 159.075 355.432 157.716 358.701C156.356 361.97 155.997 365.569 156.683 369.043C157.369 372.516 159.069 375.709 161.569 378.216C164.07 380.722 167.257 382.432 170.729 383.127C174.201 383.822 177.8 383.473 181.073 382.122C184.346 380.771 187.145 378.48 189.116 375.539C191.087 372.597 192.141 369.138 192.145 365.597C192.151 360.85 190.271 356.295 186.919 352.934C183.567 349.573 179.017 347.681 174.27 347.674ZM174.222 381.072C171.156 381.068 168.161 380.154 165.614 378.448C163.067 376.741 161.084 374.317 159.915 371.483C158.745 368.648 158.443 365.531 159.045 362.525C159.648 359.519 161.128 356.759 163.299 354.594C165.47 352.429 168.234 350.957 171.242 350.363C174.25 349.769 177.366 350.081 180.197 351.258C183.028 352.436 185.446 354.426 187.146 356.977C188.845 359.529 189.75 362.527 189.746 365.593C189.743 367.629 189.34 369.644 188.558 371.524C187.777 373.404 186.632 375.111 185.191 376.549C183.749 377.986 182.039 379.126 180.156 379.902C178.274 380.678 176.258 381.076 174.222 381.072V381.072Z" fill="#4A2A5E"/>
<path d="M172.034 430.431C172.392 430.787 172.814 431.073 173.278 431.272C173.759 431.477 174.277 431.583 174.8 431.583C175.323 431.583 175.841 431.477 176.322 431.272C177.26 430.872 178.007 430.125 178.407 429.187C178.612 428.706 178.718 428.188 178.718 427.665C178.718 427.142 178.612 426.624 178.407 426.143C178.206 425.68 177.921 425.258 177.566 424.899C177.208 424.543 176.785 424.258 176.322 424.058C175.841 423.853 175.323 423.747 174.8 423.747C174.277 423.747 173.759 423.853 173.278 424.058C172.34 424.458 171.593 425.205 171.193 426.143C170.988 426.624 170.882 427.142 170.882 427.665C170.882 428.188 170.988 428.706 171.193 429.187C171.392 429.651 171.677 430.074 172.034 430.431V430.431Z" fill="#4B2771"/>
<path d="M180.725 430.528C181.082 430.885 181.504 431.171 181.969 431.368C182.45 431.574 182.968 431.679 183.491 431.679C184.014 431.679 184.532 431.574 185.013 431.368C185.951 430.968 186.698 430.221 187.098 429.283C187.303 428.802 187.409 428.284 187.409 427.761C187.409 427.238 187.303 426.72 187.098 426.239C186.698 425.301 185.951 424.554 185.013 424.154C184.532 423.949 184.014 423.843 183.491 423.843C182.968 423.843 182.45 423.949 181.969 424.154C181.031 424.554 180.284 425.301 179.884 426.239C179.679 426.72 179.573 427.238 179.573 427.761C179.573 428.284 179.679 428.802 179.884 429.283C180.082 429.748 180.367 430.171 180.725 430.528V430.528Z" fill="#4B2771"/>
<path d="M206.887 459.316C206.531 458.958 206.108 458.673 205.643 458.475C205.162 458.27 204.644 458.164 204.121 458.164C203.598 458.164 203.08 458.27 202.599 458.475C201.661 458.875 200.914 459.622 200.514 460.56C200.309 461.041 200.203 461.559 200.203 462.082C200.203 462.605 200.309 463.123 200.514 463.604C200.715 464.067 201 464.489 201.355 464.848C201.713 465.204 202.135 465.489 202.599 465.689C203.08 465.894 203.598 466 204.121 466C204.644 466 205.162 465.894 205.643 465.689C206.581 465.289 207.328 464.542 207.728 463.604C207.933 463.123 208.039 462.605 208.039 462.082C208.039 461.559 207.933 461.041 207.728 460.56C207.53 460.095 207.245 459.672 206.887 459.316V459.316Z" fill="#4B2771"/>
<path d="M198.196 459.182C197.84 458.824 197.417 458.537 196.952 458.338C196.471 458.133 195.953 458.027 195.43 458.027C194.907 458.027 194.389 458.133 193.908 458.338C192.971 458.741 192.224 459.489 191.823 460.427C191.618 460.908 191.512 461.425 191.512 461.949C191.512 462.472 191.618 462.989 191.823 463.471C192.223 464.408 192.97 465.155 193.908 465.555C194.389 465.761 194.907 465.867 195.43 465.867C195.953 465.867 196.471 465.761 196.952 465.555C197.89 465.155 198.637 464.408 199.037 463.471C199.242 462.989 199.348 462.472 199.348 461.949C199.348 461.425 199.242 460.908 199.037 460.427C198.839 459.962 198.554 459.539 198.196 459.182V459.182Z" fill="#4B2771"/>
<path d="M213.686 424.395C214.045 424.753 214.469 425.04 214.934 425.239C215.415 425.445 215.932 425.551 216.454 425.551C216.977 425.551 217.494 425.445 217.975 425.239C218.912 424.835 219.659 424.088 220.063 423.151C220.268 422.67 220.374 422.153 220.374 421.631C220.374 421.108 220.268 420.591 220.063 420.111C219.662 419.171 218.914 418.423 217.975 418.022C217.494 417.817 216.977 417.711 216.454 417.711C215.932 417.711 215.415 417.817 214.934 418.022C213.993 418.42 213.244 419.169 212.846 420.111C212.64 420.591 212.535 421.108 212.535 421.631C212.535 422.153 212.64 422.67 212.846 423.151C213.045 423.615 213.33 424.037 213.686 424.395Z" fill="#4B2771"/>
<path d="M222.378 424.506C222.736 424.863 223.158 425.15 223.622 425.351C224.103 425.556 224.621 425.662 225.144 425.662C225.667 425.662 226.185 425.556 226.666 425.351C227.603 424.948 228.35 424.2 228.751 423.262C228.956 422.782 229.062 422.264 229.062 421.742C229.062 421.219 228.956 420.702 228.751 420.222C228.35 419.284 227.603 418.536 226.666 418.133C226.185 417.928 225.667 417.822 225.144 417.822C224.621 417.822 224.103 417.928 223.622 418.133C222.685 418.536 221.938 419.284 221.537 420.222C221.332 420.702 221.226 421.219 221.226 421.742C221.226 422.264 221.332 422.782 221.537 423.262C221.736 423.726 222.021 424.149 222.378 424.506Z" fill="#4B2771"/>
<path d="M244.137 421.607C242.816 418.982 241.212 417.653 239.323 417.618C237.405 417.497 235.999 418.45 235.105 420.477C233.782 423.413 234.105 427.692 236.075 433.316C238.046 438.94 238.568 443.221 237.642 446.158C236.783 448.854 235.039 450.366 232.409 450.695V450.676H231.946C231.367 450.682 230.789 450.627 230.221 450.513C229.735 450.413 229.26 450.267 228.802 450.076C228.356 449.888 227.925 449.668 227.51 449.417C227.088 449.165 226.64 448.891 226.162 448.599C227.644 447.115 228.867 445.394 229.78 443.507C230.538 441.944 231.007 440.256 231.165 438.526C231.296 437.008 231.12 435.479 230.647 434.031C230.21 432.693 229.517 431.452 228.606 430.379C227.725 429.351 226.633 428.525 225.403 427.958C224.15 427.381 222.778 427.108 221.4 427.161C219.721 427.189 218.077 427.646 216.624 428.489C215.172 429.332 213.959 430.532 213.101 431.975C212.531 432.921 212.107 433.947 211.842 435.019C211.573 436.135 211.472 437.285 211.542 438.43C211.619 439.657 211.88 440.865 212.316 442.015C212.798 443.279 213.454 444.471 214.264 445.555C215.195 446.795 216.293 447.9 217.526 448.84C216.51 449.452 215.4 449.896 214.242 450.154C212.642 450.519 211.005 450.696 209.365 450.684V450.717C208.909 450.689 208.458 450.616 208.017 450.499C207.436 450.342 206.875 450.117 206.347 449.828C205.802 449.534 205.298 449.171 204.847 448.747C204.382 448.31 203.979 447.811 203.647 447.266C204.459 445.807 205.069 444.245 205.458 442.622C205.777 441.331 205.867 439.993 205.725 438.671C205.627 437.604 205.226 436.587 204.569 435.742C204.04 435.08 203.313 434.604 202.495 434.383C201.691 434.183 200.847 434.219 200.063 434.486C199.206 434.77 198.44 435.275 197.841 435.949C197.135 436.737 196.628 437.681 196.359 438.704C196.032 439.989 195.993 441.331 196.245 442.633C196.443 443.714 196.456 444.821 196.282 445.907C196.136 446.776 195.818 447.607 195.345 448.351C194.921 449.008 194.349 449.558 193.675 449.954C193.005 450.343 192.265 450.594 191.497 450.695H191.034C190.579 450.667 190.127 450.593 189.686 450.476C189.105 450.319 188.545 450.094 188.016 449.806C187.472 449.511 186.968 449.148 186.516 448.725C186.052 448.288 185.649 447.79 185.32 447.243C186.13 445.784 186.738 444.222 187.128 442.6C187.446 441.308 187.536 439.971 187.394 438.649C187.296 437.583 186.897 436.566 186.242 435.719C185.712 435.057 184.984 434.581 184.165 434.36C183.362 434.16 182.519 434.196 181.736 434.464C180.879 434.748 180.113 435.252 179.514 435.927C178.815 436.716 178.314 437.661 178.051 438.682C177.721 439.967 177.68 441.309 177.933 442.611C178.131 443.692 178.144 444.799 177.97 445.884C177.824 446.753 177.507 447.584 177.037 448.328C176.611 448.986 176.037 449.535 175.363 449.932C174.81 450.254 174.208 450.483 173.581 450.61H161.639C160.817 450.439 160.014 450.191 159.239 449.869C158.413 449.53 157.659 449.038 157.017 448.417C157.112 447.394 157.132 446.366 157.077 445.34C156.961 443.14 156.57 440.963 155.914 438.86C155.575 437.782 155.174 436.725 154.714 435.693C153.841 433.736 152.754 431.88 151.474 430.161C150.437 428.769 149.216 427.523 147.845 426.458C146.689 425.56 145.386 424.87 143.994 424.417C142.744 424.02 141.434 423.845 140.124 423.899C139.217 423.942 138.323 424.126 137.472 424.443C136.762 424.706 136.106 425.097 135.536 425.595C135.029 426.044 134.618 426.589 134.325 427.198C134.045 427.776 133.896 428.408 133.888 429.05C133.881 429.709 134.007 430.363 134.258 430.972C134.54 431.654 134.954 432.273 135.476 432.794C134.703 433.048 133.995 433.469 133.403 434.027C132.738 434.647 132.184 435.376 131.766 436.182C131.304 437.082 130.978 438.045 130.799 439.041C130.598 440.142 130.582 441.268 130.751 442.374C130.944 443.601 131.318 444.793 131.862 445.91C132.507 447.213 133.352 448.408 134.365 449.451C133.836 449.758 133.275 450.007 132.692 450.191C132.143 450.362 131.58 450.486 131.01 450.561C130.444 450.637 129.874 450.679 129.303 450.687H128.266C125.326 450.527 123.387 449.001 122.449 446.11C121.513 443.177 122.033 438.898 124.008 433.272C125.983 427.645 126.309 423.366 124.985 420.433C124.094 418.404 122.688 417.451 120.767 417.574C118.879 417.589 117.266 418.918 115.928 421.562C114.589 424.206 113.95 429.362 114.009 437.03C114.503 444.372 116.262 449.512 119.286 452.45C122.066 455.116 124.832 456.474 127.585 456.524H128.163L128.366 456.501H128.414C129.333 456.412 130.192 456.298 130.984 456.157C131.834 456.009 132.668 455.785 133.477 455.487C134.283 455.189 135.055 454.807 135.78 454.346C136.59 453.831 137.35 453.24 138.05 452.583C139.943 454.117 142.023 455.402 144.242 456.409C145.796 457.125 147.475 457.529 149.185 457.597C150.491 457.633 151.78 457.286 152.892 456.601C153.944 455.924 154.812 454.996 155.418 453.902C155.816 454.28 156.262 454.606 156.743 454.872C157.315 455.201 157.908 455.493 158.517 455.746C159.117 456.001 159.736 456.209 160.369 456.368C160.593 456.425 160.821 456.471 161.05 456.505V456.69H173.641V456.446C174.252 456.368 174.837 456.272 175.381 456.161C176.189 455.997 176.974 455.735 177.718 455.379C178.497 454.997 179.222 454.513 179.873 453.939C180.67 453.225 181.392 452.433 182.028 451.572C182.481 452.265 183.012 452.903 183.61 453.476C184.266 454.112 184.997 454.665 185.787 455.124C186.634 455.614 187.54 455.993 188.483 456.253C189.51 456.535 190.579 456.637 191.642 456.553V456.486C192.382 456.4 193.07 456.291 193.704 456.161C194.514 455.997 195.3 455.735 196.045 455.379C196.823 454.996 197.548 454.511 198.2 453.939C198.997 453.225 199.719 452.433 200.355 451.572C200.807 452.266 201.338 452.904 201.936 453.476C202.592 454.112 203.324 454.665 204.114 455.124C204.96 455.614 205.866 455.994 206.81 456.253C207.802 456.525 208.834 456.628 209.861 456.557C211.025 456.568 212.188 456.471 213.335 456.264C214.451 456.061 215.544 455.745 216.597 455.32C217.556 454.928 218.477 454.45 219.348 453.891C220.198 453.345 221.036 452.757 221.863 452.128C222.571 452.713 223.305 453.27 224.062 453.798C224.825 454.328 225.627 454.798 226.462 455.205C227.307 455.615 228.192 455.939 229.102 456.172C229.924 456.38 230.766 456.497 231.613 456.52V456.553H232.328C235.187 456.583 238.026 455.225 240.845 452.48C243.874 449.547 245.634 444.407 246.126 437.06C246.138 429.355 245.475 424.204 244.137 421.607ZM139.302 443.933C139.004 444.822 138.568 445.658 138.009 446.41C137.65 446.06 137.337 445.665 137.076 445.236C136.797 444.785 136.564 444.306 136.384 443.807C136.211 443.328 136.095 442.831 136.039 442.326C135.981 441.891 136.013 441.448 136.132 441.026C136.238 440.653 136.465 440.325 136.776 440.093C137.158 439.828 137.616 439.698 138.08 439.722C138.288 439.732 138.492 439.79 138.674 439.892C138.855 439.995 139.011 440.138 139.128 440.311C139.431 440.747 139.6 441.262 139.613 441.792C139.639 442.519 139.534 443.244 139.302 443.933V443.933ZM149.93 448.888C149.899 449.543 149.705 450.18 149.363 450.739C149.201 450.988 148.988 451.199 148.737 451.358C148.487 451.517 148.205 451.62 147.911 451.661C147.078 451.753 146.235 451.639 145.456 451.328C144.191 450.847 142.993 450.203 141.894 449.414C142.612 448.604 143.233 447.715 143.745 446.762C144.235 445.867 144.644 444.93 144.967 443.962C145.264 443.079 145.473 442.169 145.59 441.244C145.696 440.438 145.72 439.623 145.66 438.811C146.343 439.501 146.95 440.262 147.471 441.081C148.011 441.923 148.477 442.81 148.863 443.733C149.236 444.609 149.522 445.519 149.719 446.451C149.897 447.25 149.968 448.07 149.93 448.888V448.888ZM223.359 442.181C222.978 443.41 222.393 444.567 221.63 445.603C221.042 445.171 220.522 444.654 220.085 444.07C219.672 443.525 219.33 442.929 219.071 442.296C218.834 441.721 218.678 441.115 218.608 440.496C218.543 439.96 218.587 439.416 218.737 438.897C218.871 438.44 219.127 438.029 219.478 437.708C219.868 437.374 220.361 437.184 220.874 437.167C221.193 437.128 221.517 437.153 221.825 437.243C222.134 437.332 222.421 437.482 222.67 437.686C223.187 438.139 223.52 438.766 223.603 439.448C223.725 440.365 223.645 441.298 223.37 442.181H223.359Z" fill="#4B2771"/>
<path d="M174.274 346C170.402 345.994 166.616 347.137 163.393 349.283C160.171 351.429 157.658 354.483 156.171 358.057C154.684 361.632 154.29 365.568 155.04 369.366C155.79 373.164 157.65 376.655 160.383 379.397C163.117 382.138 166.603 384.007 170.399 384.768C174.195 385.529 178.131 385.146 181.71 383.67C185.289 382.193 188.35 379.688 190.505 376.472C192.661 373.256 193.814 369.472 193.819 365.601C193.826 360.41 191.771 355.429 188.105 351.753C184.44 348.077 179.465 346.008 174.274 346V346ZM174.222 383.031C170.769 383.027 167.396 381.999 164.527 380.077C161.659 378.155 159.425 375.425 158.108 372.234C156.791 369.042 156.45 365.531 157.128 362.146C157.806 358.761 159.473 355.652 161.918 353.214C164.363 350.776 167.475 349.118 170.863 348.449C174.25 347.78 177.76 348.131 180.948 349.457C184.136 350.782 186.859 353.024 188.773 355.898C190.687 358.771 191.706 362.148 191.701 365.601C191.694 370.23 189.849 374.667 186.571 377.935C183.293 381.204 178.851 383.037 174.222 383.031V383.031Z" fill="#4B2771"/>
</g>
</g>
<defs>
<filter id="filter0_d_2_167" x="0" y="0" width="383" height="820" filterUnits="userSpaceOnUse" color-interpolation-filters="sRGB">
<feFlood flood-opacity="0" result="BackgroundImageFix"/>
<feColorMatrix in="SourceAlpha" type="matrix" values="0 0 0 0 0 0 0 0 0 0 0 0 0 0 0 0 0 0 127 0" result="hardAlpha"/>
<feOffset dy="4"/>
<feGaussianBlur stdDeviation="2"/>
<feComposite in2="hardAlpha" operator="out"/>
<feColorMatrix type="matrix" values="0 0 0 0 0 0 0 0 0 0 0 0 0 0 0 0 0 0 0.25 0"/>
<feBlend mode="normal" in2="BackgroundImageFix" result="effect1_dropShadow_2_167"/>
<feBlend mode="normal" in="SourceGraphic" in2="effect1_dropShadow_2_167" result="shape"/>
</filter>
<filter id="filter1_f_2_167" x="-293" y="725" width="612" height="612" filterUnits="userSpaceOnUse" color-interpolation-filters="sRGB">
<feFlood flood-opacity="0" result="BackgroundImageFix"/>
<feBlend mode="normal" in="SourceGraphic" in2="BackgroundImageFix" result="shape"/>
<feGaussianBlur stdDeviation="45" result="effect1_foregroundBlur_2_167"/>
</filter>
<filter id="filter2_f_2_167" x="165" y="-262" width="410" height="410" filterUnits="userSpaceOnUse" color-interpolation-filters="sRGB">
<feFlood flood-opacity="0" result="BackgroundImageFix"/>
<feBlend mode="normal" in="SourceGraphic" in2="BackgroundImageFix" result="shape"/>
<feGaussianBlur stdDeviation="45" result="effect1_foregroundBlur_2_167"/>
</filter>
<filter id="filter3_f_2_167" x="235" y="600" width="310" height="320" filterUnits="userSpaceOnUse" color-interpolation-filters="sRGB">
<feFlood flood-opacity="0" result="BackgroundImageFix"/>
<feBlend mode="normal" in="SourceGraphic" in2="BackgroundImageFix" result="shape"/>
<feGaussianBlur stdDeviation="45" result="effect1_foregroundBlur_2_167"/>
</filter>
</defs>
</svg>
