<svg width="39" height="56" viewBox="0 0 39 56" fill="none" xmlns="http://www.w3.org/2000/svg">
<path d="M30.2617 38.7904L24.0991 28.1165L21.0631 29.8693L27.2257 40.5432L30.2617 38.7904Z" fill="#4A2A5E"/>
<path d="M32.6025 39.1112L38.4966 49.8873C38.9561 50.7266 39.0635 51.7141 38.7949 52.6325C38.5264 53.551 37.904 54.3251 37.0647 54.7847C36.2254 55.2443 35.2379 55.3516 34.3195 55.083C33.401 54.8145 32.6269 54.1921 32.1673 53.3528L26.2732 42.586L32.6025 39.1112Z" fill="#EA630B"/>
<path d="M31.115 39.9259L31.9914 39.4445L37.8856 50.2236C38.2545 50.9017 38.3399 51.6983 38.123 52.4391C37.9061 53.1799 37.4047 53.8047 36.7283 54.1767C36.6113 54.2375 36.4754 54.2507 36.3488 54.2138C36.2505 54.189 36.1621 54.1348 36.0955 54.0584C36.0289 53.982 35.9872 53.887 35.9761 53.7863C35.965 53.6855 35.9851 53.5838 36.0335 53.4947C36.0819 53.4056 36.1564 53.3335 36.2469 53.288C36.4672 53.1679 36.6617 53.0055 36.8192 52.8102C36.9768 52.6149 37.0943 52.3905 37.1651 52.1498C37.2358 51.9091 37.2585 51.6568 37.2317 51.4073C37.205 51.1578 37.1294 50.916 37.0092 50.6958L31.115 39.9259Z" fill="#EF8500"/>
<path d="M26.2731 42.586L32.6024 39.1205L32.3463 38.6483C32.1847 38.3549 31.9136 38.1373 31.5921 38.043C31.2706 37.9488 30.9249 37.9856 30.6305 38.1453L26.5138 40.398C26.3687 40.4774 26.2407 40.5846 26.137 40.7135C26.0333 40.8424 25.9561 40.9905 25.9096 41.1493C25.8632 41.308 25.8485 41.4744 25.8664 41.6388C25.8843 41.8033 25.9344 41.9626 26.0139 42.1077L26.2731 42.586Z" fill="#4B2771"/>
<path d="M17.2252 1.39479C14.2747 1.39052 11.3892 2.26132 8.93359 3.89705C6.47799 5.53278 4.56263 7.85998 3.42971 10.5843C2.29679 13.3087 1.99721 16.3078 2.56886 19.2024C3.14051 22.097 4.55771 24.7571 6.64124 26.8462C8.72476 28.9354 11.381 30.3597 14.2741 30.9392C17.1672 31.5186 20.1671 31.2271 22.8944 30.1015C25.6218 28.9759 27.9542 27.0668 29.5965 24.6156C31.2388 22.1644 32.1174 19.2813 32.121 16.3307C32.126 12.3749 30.5594 8.57913 27.766 5.77818C24.9726 2.97724 21.181 1.40052 17.2252 1.39479ZM17.1851 29.2269C14.6302 29.2232 12.1338 28.462 10.0115 27.0396C7.88925 25.6171 6.23645 23.5972 5.26213 21.2354C4.2878 18.8736 4.0357 16.2759 4.53773 13.7709C5.03975 11.2658 6.27334 8.96583 8.08251 7.16185C9.89167 5.35786 12.1952 4.13087 14.7017 3.63602C17.2082 3.14118 19.8051 3.40071 22.1641 4.38181C24.5231 5.3629 26.5382 7.02149 27.9546 9.14784C29.371 11.2742 30.125 13.7728 30.1214 16.3277C30.1193 18.0242 29.7831 19.7036 29.1318 21.2701C28.4805 22.8366 27.527 24.2595 26.3257 25.4574C25.1243 26.6553 23.6988 27.6047 22.1304 28.2515C20.562 28.8983 18.8816 29.2297 17.1851 29.2269V29.2269Z" fill="#4A2A5E"/>
<path d="M17.2283 1.86683e-05C14.0019 -0.00486142 10.8465 0.947143 8.16124 2.73563C5.47592 4.52413 3.38129 7.06876 2.14223 10.0477C0.903179 13.0267 0.575352 16.3063 1.20023 19.4716C1.8251 22.6369 3.3746 25.5458 5.65276 27.8304C7.93093 30.1151 10.8354 31.6728 13.999 32.3067C17.1625 32.9405 20.4429 32.622 23.4254 31.3914C26.4079 30.1608 28.9585 28.0734 30.7546 25.3932C32.5507 22.7129 33.5116 19.5603 33.5159 16.3339C33.5216 12.0081 31.8089 7.85724 28.7545 4.79413C25.7001 1.73102 21.5541 0.0065616 17.2283 1.86683e-05V1.86683e-05ZM17.1851 30.8594C14.3078 30.8557 11.4963 29.9989 9.10598 28.3973C6.71569 26.7956 4.85404 24.5211 3.75648 21.8614C2.65892 19.2017 2.37475 16.2762 2.9399 13.455C3.50504 10.6338 4.89413 8.0435 6.93148 6.01176C8.96882 3.98003 11.5629 2.5981 14.3857 2.04073C17.2085 1.48337 20.1331 1.77561 22.7898 2.8805C25.4465 3.9854 27.7159 5.8533 29.3109 8.248C30.9059 10.6427 31.755 13.4566 31.7507 16.3339C31.745 20.1915 30.2073 23.8889 27.4758 26.6128C24.7443 29.3368 21.0427 30.8643 17.1851 30.8594V30.8594Z" fill="#4B2771"/>
</svg>
