<svg width="129" height="100" viewBox="0 0 129 100" fill="none" xmlns="http://www.w3.org/2000/svg">
<path d="M63.2617 38.7904L57.0991 28.1165L54.0631 29.8693L60.2257 40.5432L63.2617 38.7904Z" fill="#4A2A5E"/>
<path d="M15.4035 26.8786C15.7261 27.2023 16.1087 27.4602 16.5298 27.6377C16.965 27.819 17.4317 27.9124 17.9031 27.9124C18.3745 27.9124 18.8412 27.819 19.2763 27.6377C20.123 27.2764 20.7974 26.602 21.1588 25.7553C21.3401 25.3201 21.4334 24.8534 21.4334 24.382C21.4334 23.9106 21.3401 23.4439 21.1588 23.0088C20.9805 22.588 20.7227 22.2056 20.3996 21.8824C20.0768 21.5604 19.6956 21.3027 19.2763 21.1233C18.8412 20.942 18.3745 20.8486 17.9031 20.8486C17.4317 20.8486 16.965 20.942 16.5298 21.1233C15.6803 21.4831 15.0041 22.1593 14.6443 23.0088C14.463 23.4439 14.3697 23.9106 14.3697 24.382C14.3697 24.8534 14.463 25.3201 14.6443 25.7553C14.8219 26.1755 15.0798 26.5571 15.4035 26.8786V26.8786Z" fill="#EA630B"/>
<path d="M23.2819 26.7613C23.5896 27.0679 23.9531 27.313 24.3527 27.4834C24.7667 27.6586 25.2116 27.7488 25.6612 27.7488C26.1107 27.7488 26.5556 27.6586 26.9696 27.4834C27.3695 27.3134 27.733 27.0683 28.0404 26.7613C28.347 26.4529 28.593 26.0896 28.7656 25.6904C28.9408 25.2765 29.0311 24.8315 29.0311 24.382C29.0311 23.9325 28.9408 23.4875 28.7656 23.0736C28.5938 22.674 28.3477 22.3106 28.0404 22.0027C27.733 21.6957 27.3695 21.4506 26.9696 21.2806C26.5556 21.1055 26.1107 21.0152 25.6612 21.0152C25.2116 21.0152 24.7667 21.1055 24.3527 21.2806C23.9531 21.451 23.5896 21.6961 23.2819 22.0027C22.9749 22.3102 22.7297 22.6737 22.5598 23.0736C22.3846 23.4875 22.2943 23.9325 22.2943 24.382C22.2943 24.8315 22.3846 25.2765 22.5598 25.6904C22.7301 26.0901 22.9752 26.4535 23.2819 26.7613V26.7613Z" fill="#EA630B"/>
<path d="M114.005 26.7243C114.289 27.0069 114.625 27.2331 114.993 27.3908C115.375 27.5534 115.786 27.6371 116.201 27.6371C116.616 27.6371 117.027 27.5534 117.409 27.3908C117.778 27.2339 118.113 27.0076 118.397 26.7243C118.68 26.4404 118.908 26.1053 119.066 25.7368C119.229 25.3547 119.313 24.9438 119.313 24.5286C119.313 24.1134 119.229 23.7025 119.066 23.3205C118.746 22.5765 118.153 21.9834 117.409 21.6633C117.027 21.5008 116.616 21.417 116.201 21.417C115.786 21.417 115.375 21.5008 114.993 21.6633C114.624 21.8221 114.289 22.0494 114.005 22.333C113.722 22.6164 113.496 22.9517 113.339 23.3205C113.176 23.7025 113.093 24.1134 113.093 24.5286C113.093 24.9438 113.176 25.3547 113.339 25.7368C113.497 26.1051 113.723 26.4402 114.005 26.7243V26.7243Z" fill="#EA630B"/>
<path d="M118.591 33.0473C118.32 32.3112 117.933 31.6227 117.446 31.0075C117.009 30.4676 116.471 30.017 115.863 29.6805C115.305 29.3671 114.694 29.158 114.061 29.0634C113.463 28.9763 112.854 29.0077 112.268 29.1559C111.692 29.296 111.156 29.5686 110.703 29.9521C110.222 30.3658 109.843 30.8855 109.596 31.4704C109.3 32.174 109.156 32.9322 109.173 33.6954C109.176 34.1373 109.282 34.5725 109.481 34.9668C109.682 35.3709 109.918 35.7562 110.188 36.1178C110.464 36.4902 110.747 36.8564 111.037 37.2164C111.318 37.5594 111.559 37.9343 111.753 38.3335C111.935 38.7145 112.04 39.1277 112.061 39.5494C112.074 40.0301 111.954 40.5051 111.716 40.9226C111.515 41.2464 111.258 41.5316 110.956 41.7651C110.656 41.9966 110.326 42.1876 109.975 42.3329C109.616 42.4759 109.243 42.5794 108.861 42.6415C108.664 42.6754 108.466 42.697 108.269 42.7125C105.952 42.5767 104.423 41.366 103.68 39.0803C102.937 36.7515 103.349 33.3569 104.914 28.8967C106.48 24.4365 106.742 21.042 105.701 18.7131C104.991 17.1023 103.874 16.3462 102.35 16.445C100.85 16.4573 99.5694 17.5127 98.5078 19.6111C97.4462 21.7096 96.9319 25.8025 96.9648 31.8901C97.3372 37.7184 98.729 41.798 101.14 44.1289C103.339 46.2397 105.529 47.3136 107.71 47.3506V47.3691C107.88 47.3938 108.051 47.4 108.222 47.3877C108.392 47.3877 108.565 47.3691 108.735 47.3691C109.973 47.4212 111.211 47.2754 112.404 46.9371C113.415 46.6476 114.37 46.1907 115.231 45.5855C116.019 45.0218 116.71 44.3315 117.273 43.5426C117.824 42.7705 118.267 41.9276 118.591 41.0368C118.911 40.1509 119.119 39.2281 119.208 38.2903C119.301 37.3809 119.295 36.4642 119.19 35.5562C119.096 34.6982 118.894 33.8554 118.591 33.0473V33.0473Z" fill="#EA630B"/>
<path d="M106.439 25.6442C106.596 26.013 106.822 26.3482 107.105 26.6317C107.39 26.9142 107.725 27.1413 108.093 27.3013C108.475 27.4639 108.886 27.5476 109.301 27.5476C109.716 27.5476 110.127 27.4639 110.509 27.3013C110.878 27.1422 111.214 26.915 111.5 26.6317C111.783 26.3482 112.009 26.013 112.166 25.6442C112.329 25.2621 112.413 24.8512 112.413 24.436C112.413 24.0208 112.329 23.6099 112.166 23.2279C112.009 22.8595 111.782 22.5244 111.5 22.2404C111.214 21.957 110.878 21.7299 110.509 21.5707C110.127 21.4082 109.716 21.3244 109.301 21.3244C108.886 21.3244 108.475 21.4082 108.093 21.5707C107.725 21.7307 107.39 21.9578 107.105 22.2404C106.823 22.5244 106.596 22.8595 106.439 23.2279C106.276 23.6099 106.192 24.0208 106.192 24.436C106.192 24.8512 106.276 25.2621 106.439 25.6442V25.6442Z" fill="#EA630B"/>
<path d="M122.152 52.4208C123.184 52.8206 124.116 53.441 124.883 54.2384C125.677 55.0634 126.338 56.0066 126.843 57.0343C127.381 58.1308 127.782 59.2896 128.037 60.4843C128.308 61.7311 128.457 63.0013 128.482 64.277C128.507 65.5656 128.413 66.8538 128.201 68.1251C128.002 69.3512 127.672 70.5523 127.216 71.7079C126.797 72.7804 126.233 73.7906 125.541 74.7105C124.904 75.5656 124.105 76.287 123.189 76.8336C122.277 77.3654 121.255 77.682 120.202 77.7594C118.968 77.8335 117.733 77.642 116.579 77.1978C115.909 76.9701 115.302 76.5874 114.808 76.0807C114.355 75.6174 113.994 75.0717 113.746 74.4729C113.516 73.9168 113.405 73.3187 113.419 72.717C113.424 72.1612 113.578 71.6168 113.863 71.1401C114.083 70.7825 114.366 70.4686 114.7 70.2143C115.043 69.9444 115.443 69.7546 115.869 69.6588C116.356 69.5564 116.858 69.5564 117.344 69.6588C117.972 69.7907 118.574 70.0253 119.125 70.3532C119.612 70.6703 120.169 70.8612 120.748 70.9087C121.244 70.9382 121.738 70.8314 122.177 70.6001C122.655 70.3316 123.074 69.9707 123.411 69.5385C123.826 69.0144 124.182 68.4463 124.473 67.8443C122.086 67.7291 120.052 67.1963 118.369 66.2458C116.723 65.3341 115.403 63.9317 114.592 62.2341C114.228 61.382 114.011 60.4741 113.953 59.5493C113.887 58.6435 113.96 57.7329 114.169 56.8491C114.37 56.0066 114.708 55.2028 115.169 54.4699C115.605 53.7694 116.188 53.1723 116.878 52.7201C117.585 52.2708 118.392 52.0036 119.227 51.9425C120.226 51.8718 121.228 52.0356 122.152 52.4208ZM120.014 59.827C119.938 60.2064 119.957 60.5986 120.069 60.9688C120.177 61.3209 120.352 61.6489 120.585 61.9347C120.827 62.2346 121.113 62.4958 121.433 62.7093C121.764 62.9307 122.118 63.1159 122.489 63.2617C122.849 63.402 123.222 63.5054 123.603 63.5703C123.947 63.6351 124.299 63.6589 124.649 63.6413C124.653 63.0333 124.577 62.4274 124.424 61.8391C124.289 61.3123 124.087 60.805 123.822 60.33C123.581 59.9025 123.268 59.5203 122.896 59.2006C122.578 58.92 122.193 58.7246 121.779 58.6328C121.425 58.5499 121.053 58.605 120.739 58.7871C120.375 59.0326 120.116 59.406 120.014 59.8332V59.827Z" fill="#9BB020"/>
<path d="M57.65 42.6847H36.3385C36.1726 42.6507 36.0088 42.6074 35.8478 42.5551C35.4991 42.444 35.1319 42.3082 34.7399 42.1447C34.348 41.9811 33.9623 41.796 33.5766 41.5954C33.2449 41.4233 32.9243 41.2306 32.6168 41.0183C33.1903 40.1848 33.6317 39.2678 33.9253 38.2996C34.1518 37.5566 34.2417 36.7787 34.1907 36.0037C34.1486 35.3769 33.9468 34.7713 33.6043 34.2447C33.2945 33.7742 32.8696 33.3907 32.3699 33.1306C31.8509 32.8681 31.2759 32.7357 30.6943 32.7449C30.0328 32.7552 29.3813 32.9078 28.7841 33.1924C28.0596 33.542 27.4 34.0127 26.8338 34.5841C26.121 35.3034 25.5226 36.1277 25.0594 37.0282C24.2033 38.6283 23.104 40.0858 21.8006 41.3485C20.6418 42.4711 19.3219 43.4145 17.8846 44.1474C16.5903 44.8077 15.1947 45.2468 13.7556 45.4466C12.4605 45.6336 11.142 45.5781 9.86729 45.2831C8.69773 45.0083 7.60768 44.4665 6.6826 43.7C5.74957 42.9099 5.04788 41.8819 4.65204 40.7251C4.46199 39.8997 4.42123 39.0468 4.5317 38.207C4.62023 37.5379 4.84498 36.8941 5.19208 36.3153C5.48738 35.8292 5.90712 35.4308 6.40794 35.1612C6.87665 34.913 7.40719 34.8058 7.93549 34.8526C8.51477 34.9121 9.06768 35.1252 9.53709 35.4698C10.1411 35.9158 10.6412 36.4875 11.0029 37.1454C11.2551 37.563 11.567 37.9414 11.9287 38.2687C12.2747 38.5876 12.6709 38.8472 13.1013 39.0371C13.532 39.2285 13.9885 39.3553 14.4561 39.4136C14.9372 39.4751 15.4253 39.4563 15.9003 39.3581C16.6743 39.2161 17.3972 38.8723 17.9957 38.3613C18.5959 37.8637 19.0777 37.2386 19.4059 36.5313C19.7277 35.8389 19.875 35.0782 19.8349 34.3156C19.7941 33.5175 19.4853 32.7564 18.9585 32.1555C18.0658 31.0356 16.9497 30.1139 15.6812 29.4491C14.56 28.8677 13.3352 28.5133 12.0768 28.4061C10.8534 28.307 9.62228 28.4335 8.44466 28.7795C7.25489 29.1185 6.12451 29.6389 5.09334 30.3224C4.06387 31.0131 3.14512 31.8558 2.36845 32.822C1.59226 33.7782 0.982022 34.8578 0.563174 36.016C0.146832 37.1863 -0.0417111 38.4255 0.0077091 39.6667C0.0663489 41.0172 0.412482 42.3396 1.02299 43.5457C1.6688 44.8623 2.59583 46.0211 3.73861 46.9402C4.97388 47.944 6.36151 48.744 7.84908 49.3102C9.47081 49.9323 11.1708 50.3269 12.9008 50.4829C14.7545 50.6573 16.6234 50.5774 18.4555 50.2453C20.4026 49.8908 22.2936 49.2775 24.078 48.4215C26.003 47.4938 27.7769 46.2807 29.3396 44.8233C29.9054 45.2399 30.5136 45.5957 31.1541 45.8848C31.8221 46.1974 32.5097 46.4664 33.2124 46.6903C33.8532 46.8995 34.5067 47.0675 35.1689 47.1933C35.4127 47.2395 35.6349 47.2766 35.8385 47.3013V47.4957H60.2823L57.65 42.6847Z" fill="#EA630B"/>
<path d="M95.2645 38.7224C95.21 37.3802 95.0229 36.0468 94.7059 34.7415C94.385 33.3947 93.9344 32.0823 93.3605 30.8224C92.6654 29.2697 91.8035 27.7973 90.7899 26.4311C89.9661 25.3235 88.9966 24.3321 87.9076 23.484C86.9894 22.7715 85.9547 22.2233 84.8494 21.8639C83.853 21.5463 82.8083 21.4074 81.7635 21.4534C81.0441 21.4871 80.3341 21.6318 79.6589 21.8824C79.0922 22.0939 78.5692 22.4077 78.1159 22.8082C77.7131 23.1633 77.3857 23.5956 77.1531 24.0796C76.932 24.5392 76.814 25.0416 76.8075 25.5516C76.8039 26.0816 76.9089 26.6067 77.1161 27.0945C77.3418 27.6345 77.671 28.1252 78.0851 28.5388C77.4699 28.7383 76.9069 29.0725 76.4372 29.517C75.9097 30.0097 75.4703 30.589 75.138 31.2297C74.3711 32.7323 74.0937 34.4373 74.3449 36.1055C74.4997 37.0816 74.7992 38.0291 75.2337 38.9168C75.7447 39.9505 76.4142 40.898 77.2179 41.725C76.7991 41.9722 76.354 42.1719 75.891 42.3206C75.4549 42.4603 75.0079 42.5635 74.5547 42.6292C74.1057 42.6902 73.6532 42.7232 73.2 42.7279H72.734H69.2408L71.8731 47.2982H72.734C73.3667 47.2303 73.9684 47.1501 74.5177 47.0513C75.1917 46.9343 75.8538 46.7566 76.4958 46.5205C77.136 46.2833 77.7494 45.9792 78.3258 45.6133C78.9687 45.2044 79.572 44.7364 80.128 44.2153C81.6231 45.412 83.2583 46.4224 84.9976 47.2241C86.2187 47.7976 87.5388 48.1308 88.8859 48.2054C89.9167 48.2565 90.9404 48.0079 91.8329 47.4895C92.6642 46.9822 93.3583 46.2786 93.8542 45.4404C94.4063 44.5019 94.7906 43.4744 94.9898 42.4039C95.2255 41.1917 95.3177 39.9561 95.2645 38.7224V38.7224ZM81.134 37.3676C80.8989 38.0731 80.5531 38.7366 80.1094 39.3334C79.8244 39.0574 79.5755 38.7463 79.3688 38.4076C79.1476 38.0487 78.9635 37.6682 78.8195 37.272C78.6833 36.8961 78.5911 36.5057 78.5449 36.1086C78.4988 35.7625 78.524 35.4107 78.6189 35.0748C78.7052 34.779 78.8849 34.5192 79.1312 34.3342C79.4357 34.1295 79.7987 34.0298 80.165 34.0502C80.3304 34.0582 80.4918 34.1044 80.6364 34.1852C80.781 34.2661 80.9048 34.3794 80.9982 34.5162C81.2398 34.8639 81.374 35.2749 81.3839 35.6981C81.401 36.2651 81.3163 36.8305 81.134 37.3676V37.3676ZM89.5833 41.3022C89.5592 41.82 89.4042 42.3233 89.1327 42.7649C89.0049 42.9626 88.8359 43.1303 88.6372 43.2566C88.4385 43.3828 88.2149 43.4646 87.9817 43.4963C87.3196 43.5705 86.6495 43.4793 86.0314 43.2309C85.0271 42.85 84.0768 42.3396 83.2046 41.7126C83.7779 41.0706 84.275 40.3644 84.6859 39.608C85.0733 38.8972 85.3975 38.1537 85.6549 37.3861C85.8905 36.684 86.0569 35.9605 86.1517 35.226C86.234 34.5854 86.2516 33.9383 86.2042 33.2942C86.7464 33.8419 87.2285 34.4461 87.6422 35.0964C88.0699 35.7656 88.4405 36.4696 88.7501 37.201C89.0443 37.8976 89.2706 38.621 89.4259 39.3611C89.5666 39.998 89.6195 40.651 89.5833 41.3022V41.3022Z" fill="#EA630B"/>
<path d="M65.6025 39.1112L71.4966 49.8873C71.9561 50.7266 72.0635 51.7141 71.7949 52.6325C71.5264 53.551 70.904 54.3251 70.0647 54.7847C69.2254 55.2443 68.2379 55.3516 67.3195 55.083C66.401 54.8145 65.6269 54.1921 65.1673 53.3528L59.2732 42.586L65.6025 39.1112Z" fill="#EA630B"/>
<path d="M64.115 39.9259L64.9914 39.4445L70.8856 50.2236C71.2545 50.9017 71.3399 51.6983 71.123 52.4391C70.9061 53.1799 70.4047 53.8047 69.7283 54.1767C69.6113 54.2375 69.4754 54.2507 69.3488 54.2138C69.2505 54.189 69.1621 54.1348 69.0955 54.0584C69.0289 53.982 68.9872 53.887 68.9761 53.7863C68.965 53.6855 68.9851 53.5838 69.0335 53.4947C69.0819 53.4056 69.1564 53.3335 69.2469 53.288C69.4672 53.1679 69.6617 53.0055 69.8192 52.8102C69.9768 52.6149 70.0943 52.3905 70.1651 52.1498C70.2358 51.9091 70.2585 51.6568 70.2317 51.4073C70.205 51.1578 70.1294 50.916 70.0092 50.6958L64.115 39.9259Z" fill="#EF8500"/>
<path d="M59.2731 42.586L65.6024 39.1205L65.3463 38.6483C65.1847 38.3549 64.9136 38.1373 64.5921 38.043C64.2706 37.9488 63.9249 37.9856 63.6305 38.1453L59.5138 40.398C59.3687 40.4774 59.2407 40.5846 59.137 40.7135C59.0333 40.8424 58.9561 40.9905 58.9096 41.1493C58.8632 41.308 58.8485 41.4744 58.8664 41.6388C58.8843 41.8033 58.9344 41.9626 59.0139 42.1077L59.2731 42.586Z" fill="#4B2771"/>
<path d="M50.2252 1.39479C47.2747 1.39052 44.3892 2.26132 41.9336 3.89705C39.478 5.53278 37.5626 7.85998 36.4297 10.5843C35.2968 13.3087 34.9972 16.3078 35.5689 19.2024C36.1405 22.097 37.5577 24.7571 39.6412 26.8462C41.7248 28.9354 44.381 30.3597 47.2741 30.9392C50.1672 31.5186 53.1671 31.2271 55.8944 30.1015C58.6218 28.9759 60.9542 27.0668 62.5965 24.6156C64.2388 22.1644 65.1174 19.2813 65.121 16.3307C65.126 12.3749 63.5594 8.57913 60.766 5.77818C57.9726 2.97724 54.181 1.40052 50.2252 1.39479ZM50.1851 29.2269C47.6302 29.2232 45.1338 28.462 43.0115 27.0396C40.8892 25.6171 39.2365 23.5972 38.2621 21.2354C37.2878 18.8736 37.0357 16.2759 37.5377 13.7709C38.0398 11.2658 39.2733 8.96583 41.0825 7.16185C42.8917 5.35786 45.1952 4.13087 47.7017 3.63602C50.2082 3.14118 52.8051 3.40071 55.1641 4.38181C57.5231 5.3629 59.5382 7.02149 60.9546 9.14784C62.371 11.2742 63.125 13.7728 63.1214 16.3277C63.1193 18.0242 62.7831 19.7036 62.1318 21.2701C61.4805 22.8366 60.527 24.2595 59.3257 25.4574C58.1243 26.6553 56.6988 27.6047 55.1304 28.2515C53.562 28.8983 51.8816 29.2297 50.1851 29.2269V29.2269Z" fill="#4A2A5E"/>
<path d="M48.3613 70.3594C48.6598 70.6561 49.0115 70.8938 49.3982 71.0599C49.7991 71.2311 50.2306 71.3193 50.6665 71.3193C51.1025 71.3193 51.5339 71.2311 51.9348 71.0599C52.7164 70.7267 53.3389 70.1042 53.6722 69.3226C53.8433 68.9216 53.9316 68.4902 53.9316 68.0542C53.9316 67.6183 53.8433 67.1869 53.6722 66.7859C53.505 66.3999 53.2674 66.0483 52.9717 65.749C52.673 65.4527 52.3213 65.2151 51.9348 65.0485C51.5339 64.8774 51.1025 64.7892 50.6665 64.7892C50.2306 64.7892 49.7991 64.8774 49.3982 65.0485C48.6166 65.3818 47.9941 66.0043 47.6608 66.7859C47.4897 67.1869 47.4015 67.6183 47.4015 68.0542C47.4015 68.4902 47.4897 68.9216 47.6608 69.3226C47.8266 69.7094 48.0643 70.0613 48.3613 70.3594V70.3594Z" fill="#4B2771"/>
<path d="M55.604 70.4396C55.9013 70.7377 56.2534 70.9755 56.6409 71.1401C57.0418 71.3113 57.4732 71.3995 57.9092 71.3995C58.3451 71.3995 58.7766 71.3113 59.1775 71.1401C59.9591 70.8069 60.5816 70.1844 60.9149 69.4028C61.086 69.0018 61.1742 68.5704 61.1742 68.1344C61.1742 67.6985 61.086 67.2671 60.9149 66.8661C60.5816 66.0845 59.9591 65.462 59.1775 65.1287C58.7766 64.9576 58.3451 64.8694 57.9092 64.8694C57.4732 64.8694 57.0418 64.9576 56.6409 65.1287C55.8593 65.462 55.2368 66.0845 54.9035 66.8661C54.7324 67.2671 54.6441 67.6985 54.6441 68.1344C54.6441 68.5704 54.7324 69.0018 54.9035 69.4028C55.0681 69.7902 55.3059 70.1423 55.604 70.4396V70.4396Z" fill="#4B2771"/>
<path d="M77.4061 94.4298C77.1088 94.1317 76.7567 93.8939 76.3693 93.7292C75.9683 93.5581 75.5369 93.4699 75.1009 93.4699C74.665 93.4699 74.2336 93.5581 73.8326 93.7292C73.051 94.0625 72.4285 94.685 72.0952 95.4666C71.9241 95.8676 71.8359 96.299 71.8359 96.735C71.8359 97.1709 71.9241 97.6023 72.0952 98.0033C72.2624 98.3893 72.5 98.7409 72.7957 99.0402C73.0945 99.3365 73.4462 99.5741 73.8326 99.7407C74.2336 99.9118 74.665 100 75.1009 100C75.5369 100 75.9683 99.9118 76.3693 99.7407C77.1509 99.4074 77.7734 98.7849 78.1066 98.0033C78.2778 97.6023 78.366 97.1709 78.366 96.735C78.366 96.299 78.2778 95.8676 78.1066 95.4666C77.942 95.0792 77.7042 94.7271 77.4061 94.4298V94.4298Z" fill="#4B2771"/>
<path d="M70.1635 94.3186C69.8663 94.0196 69.5142 93.7807 69.1266 93.615C68.7256 93.4439 68.2942 93.3557 67.8583 93.3557C67.4223 93.3557 66.9909 93.4439 66.5899 93.615C65.8089 93.9506 65.1868 94.5738 64.8526 95.3555C64.6814 95.7564 64.5932 96.1878 64.5932 96.6238C64.5932 97.0597 64.6814 97.4912 64.8526 97.8921C65.1858 98.6737 65.8083 99.2962 66.5899 99.6295C66.9909 99.8006 67.4223 99.8888 67.8583 99.8888C68.2942 99.8888 68.7256 99.8006 69.1266 99.6295C69.9082 99.2962 70.5307 98.6737 70.864 97.8921C71.0351 97.4912 71.1233 97.0597 71.1233 96.6238C71.1233 96.1878 71.0351 95.7564 70.864 95.3555C70.6994 94.968 70.4615 94.6159 70.1635 94.3186V94.3186Z" fill="#4B2771"/>
<path d="M83.0719 65.3293C83.3708 65.6277 83.7238 65.8664 84.1119 66.0329C84.5123 66.2039 84.9433 66.2921 85.3787 66.2921C85.8141 66.2921 86.245 66.2039 86.6455 66.0329C87.4264 65.6961 88.0491 65.0734 88.3859 64.2924C88.557 63.892 88.6452 63.4611 88.6452 63.0256C88.6452 62.5902 88.557 62.1593 88.3859 61.7589C88.0518 60.9761 87.4282 60.3525 86.6455 60.0184C86.245 59.8473 85.8141 59.7592 85.3787 59.7592C84.9433 59.7592 84.5123 59.8473 84.1119 60.0184C83.3275 60.3501 82.7031 60.9744 82.3714 61.7589C82.2004 62.1593 82.1122 62.5902 82.1122 63.0256C82.1122 63.4611 82.2004 63.892 82.3714 64.2924C82.5372 64.6793 82.7749 65.0311 83.0719 65.3293Z" fill="#4B2771"/>
<path d="M90.3147 65.4219C90.613 65.7196 90.9647 65.9583 91.3515 66.1255C91.7525 66.2967 92.1839 66.3849 92.6198 66.3849C93.0558 66.3849 93.4872 66.2967 93.8882 66.1255C94.6692 65.7899 95.2913 65.1667 95.6255 64.3851C95.7966 63.9846 95.8848 63.5537 95.8848 63.1183C95.8848 62.6828 95.7966 62.2519 95.6255 61.8515C95.2913 61.0698 94.6692 60.4466 93.8882 60.111C93.4872 59.9399 93.0558 59.8517 92.6198 59.8517C92.1839 59.8517 91.7525 59.9399 91.3515 60.111C90.5704 60.4466 89.9484 61.0698 89.6141 61.8515C89.4431 62.2519 89.3549 62.6828 89.3549 63.1183C89.3549 63.5537 89.4431 63.9846 89.6141 64.3851C89.7799 64.7719 90.0176 65.1238 90.3147 65.4219Z" fill="#4B2771"/>
<path d="M108.448 63.0056C107.347 60.8187 106.01 59.7108 104.436 59.682C102.837 59.5812 101.666 60.3753 100.921 62.0644C99.8183 64.5105 100.088 68.0768 101.73 72.7633C103.371 77.4498 103.806 81.0172 103.035 83.4654C102.319 85.7119 100.865 86.972 98.6745 87.2456V87.2302H98.2887C97.806 87.2349 97.324 87.1894 96.8507 87.0944C96.446 87.0112 96.0502 86.8893 95.6688 86.7303C95.2971 86.5732 94.9372 86.3896 94.5918 86.181C94.24 85.9712 93.8666 85.7428 93.4685 85.499C94.7031 84.2627 95.7222 82.8285 96.4835 81.2558C97.1147 79.953 97.5056 78.5469 97.6376 77.1052C97.7466 75.8401 97.5997 74.566 97.2056 73.3589C96.842 72.2438 96.2644 71.2102 95.5052 70.3162C94.7712 69.4591 93.8606 68.7706 92.8359 68.298C91.7916 67.8173 90.6487 67.59 89.5 67.6345C88.1008 67.6577 86.7308 68.0385 85.5203 68.7407C84.3098 69.4429 83.2992 70.4431 82.5844 71.6462C82.1092 72.4343 81.7555 73.2894 81.5352 74.1829C81.3106 75.1125 81.2263 76.0705 81.2852 77.025C81.3492 78.0474 81.5666 79.0545 81.9302 80.0122C82.3317 81.0662 82.878 82.0591 83.5534 82.9624C84.3295 83.9954 85.2443 84.9165 86.2721 85.6996C85.4248 86.2101 84.5004 86.5801 83.5348 86.7951C82.2018 87.0989 80.8379 87.247 79.4707 87.2364V87.2642C79.0911 87.241 78.7148 87.18 78.3474 87.0821C77.863 86.9516 77.3958 86.7641 76.9556 86.5235C76.5019 86.2784 76.0818 85.9755 75.7058 85.6225C75.3184 85.2579 74.9821 84.8427 74.706 84.3881C75.3829 83.1729 75.8906 81.8709 76.215 80.5183C76.4805 79.4421 76.5557 78.3277 76.4372 77.2256C76.3562 76.3366 76.0221 75.4895 75.4744 74.7846C75.0332 74.2333 74.4279 73.8366 73.7463 73.6521C73.0762 73.4856 72.3723 73.5156 71.7188 73.7385C71.0053 73.9753 70.3668 74.3957 69.8672 74.9574C69.2795 75.614 68.8564 76.401 68.6329 77.2534C68.3601 78.3244 68.3274 79.4425 68.5372 80.5276C68.7026 81.4285 68.713 82.3511 68.5681 83.2555C68.4471 83.9799 68.1816 84.6726 67.7873 85.2923C67.4343 85.8404 66.9576 86.298 66.3956 86.6285C65.8375 86.9521 65.2207 87.1619 64.581 87.2456H64.1953C63.8158 87.2222 63.4395 87.1612 63.072 87.0636C62.5878 86.9326 62.1207 86.7451 61.6802 86.505C61.227 86.2591 60.807 85.9563 60.4304 85.6039C60.0431 85.2402 59.7077 84.8248 59.4337 84.3696C60.1084 83.1537 60.615 81.8519 60.9396 80.4998C61.2051 79.4236 61.2803 78.3092 61.1618 77.2071C61.0804 76.3188 60.7474 75.472 60.2021 74.7661C59.7597 74.2145 59.1535 73.8179 58.4709 73.6336C57.8018 73.467 57.0989 73.497 56.4465 73.72C55.7328 73.9564 55.0942 74.3768 54.5949 74.9389C54.0127 75.5971 53.595 76.3839 53.376 77.2349C53.1005 78.3054 53.0668 79.4238 53.2772 80.509C53.4426 81.41 53.4531 82.3325 53.3081 83.237C53.1867 83.9608 52.9224 84.6532 52.5304 85.2737C52.1754 85.8213 51.6979 86.2788 51.1356 86.6099C50.6751 86.8783 50.1736 87.0691 49.6512 87.1747H39.6991C39.0146 87.0323 38.3451 86.8257 37.6994 86.5575C37.0111 86.2754 36.3827 85.8648 35.8478 85.3478C35.9267 84.4953 35.9432 83.6383 35.8972 82.7834C35.8006 80.9499 35.4751 79.1357 34.9282 77.383C34.6455 76.4852 34.3117 75.6042 33.9284 74.7445C33.2006 73.1131 32.295 71.567 31.2282 70.1341C30.3639 68.9738 29.3466 67.9358 28.204 67.0482C27.2406 66.3 26.1547 65.7247 24.9946 65.3478C23.953 65.017 22.8617 64.8708 21.7698 64.9158C21.0143 64.9519 20.2689 65.1049 19.5603 65.3694C18.9685 65.5887 18.4216 65.9139 17.9463 66.3292C17.5244 66.703 17.1813 67.1573 16.9372 67.6654C16.7043 68.1468 16.58 68.6736 16.5731 69.2083C16.5672 69.7575 16.6721 70.3023 16.8817 70.8099C17.1168 71.378 17.4618 71.894 17.8969 72.3282C17.2526 72.54 16.6626 72.8908 16.1688 73.3558C15.615 73.8723 15.1537 74.4798 14.8048 75.1519C14.4197 75.9016 14.1482 76.7045 13.9994 77.5342C13.8317 78.4513 13.8181 79.39 13.9593 80.3115C14.1198 81.3344 14.4319 82.3277 14.8851 83.2586C15.4227 84.3445 16.1266 85.3399 16.9712 86.2088C16.5303 86.4651 16.0625 86.6721 15.5763 86.826C15.1189 86.9682 14.6502 87.0714 14.1753 87.1346C13.7036 87.1976 13.2285 87.2326 12.7527 87.2395H11.8886C9.43838 87.1058 7.82238 85.8344 7.04061 83.4253C6.26089 80.9812 6.69395 77.4149 8.33978 72.7263C9.98562 68.0377 10.2572 64.4714 9.15448 62.0274C8.41179 60.3363 7.24016 59.5422 5.63959 59.645C4.06576 59.6574 2.72132 60.7652 1.60626 62.9686C0.49121 65.1719 -0.0416264 69.4686 0.00774863 75.8585C0.419207 81.9769 1.88503 86.2602 4.40521 88.7084C6.72172 90.9303 9.02692 92.0618 11.3208 92.1029H11.8022L11.9719 92.0844H12.012C12.7774 92.0103 13.4933 91.9147 14.1537 91.7974C14.8614 91.6744 15.5566 91.4875 16.2305 91.2388C16.9023 90.991 17.5457 90.6724 18.15 90.2884C18.8249 89.8588 19.4582 89.367 20.0417 88.8195C21.6189 90.0973 23.3529 91.1685 25.2014 92.0073C26.4965 92.6039 27.8962 92.9405 29.3211 92.9978C30.4095 93.0271 31.4829 92.7386 32.4101 92.1677C33.2867 91.6032 34.0098 90.8303 34.5147 89.9181C34.8469 90.2336 35.2182 90.5054 35.6195 90.7266C36.0962 91.0006 36.5899 91.2439 37.0977 91.4549C37.5978 91.6674 38.1136 91.8407 38.6406 91.9733C38.8279 92.0208 39.0174 92.0589 39.2084 92.0875V92.2418H49.7006V92.0381C50.2098 91.9733 50.6974 91.8931 51.151 91.8005C51.8244 91.6643 52.4784 91.4456 53.0982 91.1494C53.7478 90.8311 54.3518 90.4274 54.8943 89.9489C55.5585 89.3545 56.1603 88.6938 56.6903 87.977C57.0679 88.554 57.51 89.0861 58.008 89.5632C58.5546 90.0931 59.164 90.5543 59.8225 90.9364C60.5282 91.3446 61.2832 91.6609 62.0691 91.8776C62.9254 92.1126 63.8161 92.1972 64.7014 92.1276V92.0721C65.3186 92 65.8915 91.9095 66.4202 91.8005C67.0946 91.6643 67.7497 91.4457 68.3706 91.1494C69.0192 90.8296 69.6231 90.426 70.1666 89.9489C70.8308 89.3545 71.4326 88.6938 71.9626 87.977C72.3392 88.5548 72.7814 89.087 73.2803 89.5632C73.8269 90.0931 74.4363 90.5543 75.0948 90.9364C75.8003 91.3451 76.5553 91.6614 77.3414 91.8776C78.1687 92.1043 79.0284 92.1899 79.8842 92.1307C80.8546 92.1404 81.8237 92.0588 82.7788 91.8869C83.7094 91.7176 84.6203 91.4539 85.4975 91.1C86.2964 90.7734 87.0638 90.3746 87.7904 89.9088C88.4981 89.4541 89.1965 88.9645 89.8857 88.4399C90.4762 88.9275 91.0872 89.3914 91.7188 89.8317C92.3542 90.2733 93.0228 90.6654 93.7184 91.0043C94.4229 91.3462 95.1601 91.616 95.9187 91.8098C96.6033 91.9834 97.305 92.0807 98.011 92.0998V92.1276H98.6066C100.989 92.1523 103.355 91.0208 105.704 88.7331C108.229 86.289 109.695 82.0057 110.105 75.8832C110.115 69.4624 109.563 65.1699 108.448 63.0056ZM21.0847 81.6107C20.8368 82.3514 20.4733 83.0482 20.0077 83.6752C19.7084 83.3831 19.4472 83.0544 19.2301 82.697C18.9971 82.3209 18.8038 81.9217 18.653 81.5058C18.5091 81.1071 18.4128 80.6927 18.366 80.2714C18.3178 79.9089 18.3441 79.5403 18.4431 79.1883C18.532 78.8772 18.7207 78.6039 18.9801 78.4106C19.298 78.1903 19.6801 78.0818 20.0664 78.102C20.2401 78.1099 20.4096 78.1584 20.5613 78.2436C20.7129 78.3288 20.8425 78.4484 20.9397 78.5927C21.1927 78.9555 21.3333 79.3848 21.3439 79.827C21.3659 80.4324 21.2781 81.0367 21.0847 81.6107V81.6107ZM29.9414 85.7397C29.9162 86.2856 29.7538 86.8162 29.4692 87.2827C29.3343 87.4898 29.1565 87.6656 28.9478 87.7982C28.7391 87.9307 28.5044 88.017 28.2595 88.0511C27.5651 88.1279 26.8624 88.0325 26.2135 87.7733C25.159 87.3725 24.1611 86.8362 23.2449 86.1779C23.843 85.5036 24.3608 84.7621 24.7878 83.9684C25.1955 83.2223 25.5363 82.4416 25.8062 81.6354C26.0534 80.8994 26.2271 80.1406 26.3246 79.3703C26.4134 78.6983 26.4331 78.0189 26.3833 77.3429C26.9523 77.9178 27.4581 78.552 27.8923 79.2346C28.3423 79.9361 28.7306 80.6753 29.0526 81.4441C29.3633 82.1741 29.602 82.9328 29.7655 83.7092C29.9145 84.3751 29.9737 85.0581 29.9414 85.7397V85.7397ZM91.1324 80.1511C90.8147 81.1754 90.3276 82.1392 89.6913 83.0025C89.2018 82.6423 88.7682 82.2118 88.4045 81.7249C88.0597 81.271 87.7754 80.7741 87.5589 80.2467C87.3615 79.7671 87.2317 79.2623 87.1732 78.747C87.1189 78.2999 87.1556 77.8464 87.2812 77.4138C87.3921 77.0333 87.6056 76.6906 87.8984 76.4233C88.2237 76.1452 88.634 75.9863 89.0618 75.9727C89.3275 75.9399 89.5971 75.9612 89.8544 76.0355C90.1116 76.1097 90.3511 76.2353 90.5584 76.4048C90.9894 76.7821 91.2663 77.3051 91.3361 77.8736C91.4376 78.6379 91.3712 79.4151 91.1417 80.1511H91.1324Z" fill="#4B2771"/>
<path d="M50.2283 1.86683e-05C47.0019 -0.00486142 43.8465 0.947143 41.1612 2.73563C38.4759 4.52413 36.3813 7.06876 35.1422 10.0477C33.9032 13.0267 33.5754 16.3063 34.2002 19.4716C34.8251 22.6369 36.3746 25.5458 38.6528 27.8304C40.9309 30.1151 43.8354 31.6728 46.999 32.3067C50.1625 32.9405 53.4429 32.622 56.4254 31.3914C59.4079 30.1608 61.9585 28.0734 63.7546 25.3932C65.5507 22.7129 66.5116 19.5603 66.5159 16.3339C66.5216 12.0081 64.8089 7.85724 61.7545 4.79413C58.7001 1.73102 54.5541 0.0065616 50.2283 1.86683e-05V1.86683e-05ZM50.1851 30.8594C47.3078 30.8557 44.4963 29.9989 42.106 28.3973C39.7157 26.7956 37.854 24.5211 36.7565 21.8614C35.6589 19.2017 35.3748 16.2762 35.9399 13.455C36.505 10.6338 37.8941 8.0435 39.9315 6.01176C41.9688 3.98003 44.5629 2.5981 47.3857 2.04073C50.2085 1.48337 53.1331 1.77561 55.7898 2.8805C58.4465 3.9854 60.7159 5.8533 62.3109 8.248C63.9059 10.6427 64.755 13.4566 64.7507 16.3339C64.745 20.1915 63.2073 23.8889 60.4758 26.6128C57.7443 29.3368 54.0427 30.8643 50.1851 30.8594V30.8594Z" fill="#4B2771"/>
</svg>
